<?xml version="1.0" encoding="utf-8"?>
<!-- Generator: Adobe Illustrator 26.0.3, SVG Export Plug-In . SVG Version: 6.00 Build 0)  -->
<svg version="1.1" id="Layer_1" xmlns="http://www.w3.org/2000/svg" xmlns:xlink="http://www.w3.org/1999/xlink" x="0px" y="0px"
	 viewBox="0 0 420 420" style="enable-background:new 0 0 420 420;" xml:space="preserve">
<style type="text/css">
	.st0{fill:#659DBD;}
	.st1{font-family:'BebasNeue-Regular';}
	.st2{font-size:65.6132px;}
</style>
<g>
	<text transform="matrix(1 0 0 1 50.5952 381.152)" class="st0 st1 st2">Realty Ratings</text>
	<g>
		<g>
			<path class="st0" d="M215.4,25.73h69.26c48.44,0,69.26,22.52,69.26,68.41v18.27c0,30.6-9.77,50.14-30.6,58.64v0.85
				c23.37,7.22,31.02,29.32,31.02,62.89v52.27c0,14.45,0.42,25.07,5.1,36.12h-47.59c-2.55-7.65-4.25-12.32-4.25-36.54v-54.39
				c0-27.62-8.07-36.54-29.32-36.54h-16.15v127.48H215.4V25.73z M279.14,153.2c17.42,0,28.04-7.65,28.04-31.45V98.81
				c0-21.25-7.22-30.6-23.8-30.6h-21.25v84.99H279.14z"/>
		</g>
		<g>
			<path class="st0" d="M204.6,323.17h-46.74V195.7h-16.15c-21.25,0-29.32,8.92-29.32,36.54v54.39c0,24.22-1.7,28.89-4.25,36.54
				H60.55c4.67-11.05,5.1-21.67,5.1-36.12v-52.27c0-33.57,7.65-55.67,31.02-62.89v-0.85c-20.82-8.5-30.6-28.04-30.6-58.64V94.14
				c0-45.89,20.82-68.41,69.26-68.41h69.26V323.17z M157.86,153.2V68.22h-21.25c-16.57,0-23.8,9.35-23.8,30.6v22.95
				c0,23.8,10.62,31.45,28.05,31.45H157.86z"/>
		</g>
	</g>
</g>
</svg>
