<?xml version="1.0" encoding="utf-8"?>
<!-- Generator: Adobe Illustrator 26.1.0, SVG Export Plug-In . SVG Version: 6.00 Build 0)  -->
<svg version="1.1" id="Layer_1" xmlns="http://www.w3.org/2000/svg" xmlns:xlink="http://www.w3.org/1999/xlink" x="0px" y="0px"
	 viewBox="0 0 420 420" style="enable-background:new 0 0 420 420;" xml:space="preserve">
<style type="text/css">
	.st0{fill:#659DBD;}
</style>
<g>
	<g>
		<g>
			<path class="st0" d="M217,16.4h90.2c63,0,90.2,29.3,90.2,89v23.8c0,39.8-12.8,65.2-39.8,76.2v1.2c30.4,9.4,40.3,38.1,40.3,81.8
				v68c0,18.9,0.5,32.7,6.6,47h-61.9c-3.3-9.9-5.5-16-5.5-47.5v-70.8c0-35.9-10.5-47.5-38.1-47.5H278v165.9h-60.8V16.4H217z
				 M299.9,182.3c22.6,0,36.4-9.9,36.4-40.9v-29.9c0-27.6-9.4-39.8-31-39.8h-27.6v110.6L299.9,182.3L299.9,182.3z"/>
		</g>
		<g>
			<path class="st0" d="M203,403.5h-60.8V237.6h-20.9c-27.6,0-38.1,11.6-38.1,47.5v70.8c0,31.5-2.2,37.6-5.5,47.5H15.5
				c6.1-14.3,6.6-28.2,6.6-47v-68c0-43.7,10-72.5,40.3-81.8v-1c-27.1-11.1-39.8-36.4-39.8-76.2v-23.8c0-59.7,27.1-89,90.2-89H203
				V403.5L203,403.5z M142.2,182.3V71.7h-27.6c-21.6,0-31,12.1-31,39.8v29.9c0,31,13.8,40.9,36.6,40.9H142.2L142.2,182.3z"/>
		</g>
	</g>
</g>
</svg>
