<?xml version="1.0" encoding="utf-8"?>
<!-- Generator: Adobe Illustrator 26.1.0, SVG Export Plug-In . SVG Version: 6.00 Build 0)  -->
<svg version="1.1" id="Layer_1" xmlns="http://www.w3.org/2000/svg" xmlns:xlink="http://www.w3.org/1999/xlink" x="0px" y="0px"
	 viewBox="0 0 420 420" style="enable-background:new 0 0 420 420;" xml:space="preserve">
<style type="text/css">
	.st0{fill:#F5F5F5;}
	.st1{font-family:'BebasNeue-Regular';}
	.st2{font-size:65.6132px;}
</style>
<g>
	<text transform="matrix(1 0 0 1 50.5952 381.152)" class="st0 st1 st2">Realty Ratings</text>
	<g>
		<g>
			<path class="st0" d="M215.4,25.7h69.3c48.4,0,69.3,22.5,69.3,68.4v18.3c0,30.6-9.8,50.1-30.6,58.6v0.9c23.4,7.2,31,29.3,31,62.9
				v52.3c0,14.5,0.4,25.1,5.1,36.1h-47.6c-2.5-7.6-4.2-12.3-4.2-36.5v-54.4c0-27.6-8.1-36.5-29.3-36.5h-16.1v127.5h-46.7V25.7z
				 M279.1,153.2c17.4,0,28-7.6,28-31.4V98.8c0-21.2-7.2-30.6-23.8-30.6h-21.2v85H279.1z"/>
		</g>
		<g>
			<path class="st0" d="M204.6,323.2h-46.7V195.7h-16.1c-21.2,0-29.3,8.9-29.3,36.5v54.4c0,24.2-1.7,28.9-4.2,36.5H60.5
				c4.7-11,5.1-21.7,5.1-36.1v-52.3c0-33.6,7.7-55.7,31-62.9V171c-20.8-8.5-30.6-28-30.6-58.6V94.1c0-45.9,20.8-68.4,69.3-68.4h69.3
				L204.6,323.2L204.6,323.2z M157.9,153.2v-85h-21.2c-16.6,0-23.8,9.3-23.8,30.6v23c0,23.8,10.6,31.4,28.1,31.4L157.9,153.2
				L157.9,153.2z"/>
		</g>
	</g>
</g>
</svg>
